<svg width="2112" height="1254" viewBox="0 0 2112 1254" fill="none" xmlns="http://www.w3.org/2000/svg">
<g opacity="0.2" clip-path="url(#clip0_0_1)">
<path d="M173.097 941C94.5443 941 31 1004.54 31 1083.1C31 1161.46 94.5443 1225.19 173.097 1225.19C251.456 1225.19 315.195 1161.65 315.195 1083.1C315 1004.54 251.456 941 173.097 941ZM173.097 1216.03C99.6122 1216.03 40.1613 1156.58 40.1613 1083.1C40.1613 1009.61 99.6122 950.161 173.097 950.161C246.583 950.161 306.034 1009.61 306.034 1083.1C306.034 1156.39 246.388 1216.03 173.097 1216.03Z" fill="white"/>
<path d="M173.099 971.603C111.699 971.603 61.7988 1021.5 61.7988 1082.9C61.7988 1144.3 111.699 1194.2 173.099 1194.2C234.499 1194.2 284.399 1144.5 284.399 1083.1C284.399 1021.5 234.499 971.603 173.099 971.603ZM173.099 1177.24C121.055 1177.24 78.757 1134.95 78.757 1082.9C78.757 1030.86 121.055 988.561 173.099 988.561C225.143 988.561 267.441 1030.86 267.441 1082.9C267.441 1134.95 225.143 1177.24 173.099 1177.24Z" fill="white"/>
<path d="M173.098 1020.53C138.597 1020.53 110.528 1048.6 110.528 1083.1C110.528 1117.6 138.402 1145.67 173.098 1145.67C207.599 1145.67 235.668 1117.6 235.668 1083.1C235.473 1048.6 207.599 1020.53 173.098 1020.53ZM173.098 1116.62C154.58 1116.62 139.572 1101.61 139.572 1083.1C139.572 1064.58 154.58 1049.57 173.098 1049.57C191.616 1049.57 206.624 1064.58 206.624 1083.1C206.624 1101.61 191.616 1116.62 173.098 1116.62Z" fill="white"/>
</g>
<g opacity="0.8" clip-path="url(#clip1_0_1)">
<path d="M1911.34 834.264C1911.34 835.784 1910.19 836.923 1908.67 836.923C1907.14 836.923 1906 835.784 1906 834.264C1906 832.745 1907.14 831.605 1908.67 831.605C1910.19 831.605 1911.34 832.872 1911.34 834.264Z" fill="white"/>
<path d="M1934.08 834.264C1934.08 835.784 1932.93 836.923 1931.41 836.923C1929.88 836.923 1928.74 835.784 1928.74 834.264C1928.74 832.745 1929.88 831.605 1931.41 831.605C1932.81 831.605 1934.08 832.872 1934.08 834.264Z" fill="white"/>
<path d="M1956.69 834.264C1956.69 835.784 1955.54 836.923 1954.02 836.923C1952.5 836.923 1951.35 835.784 1951.35 834.264C1951.35 832.745 1952.5 831.605 1954.02 831.605C1955.54 831.605 1956.69 832.872 1956.69 834.264Z" fill="white"/>
<path d="M1979.43 834.264C1979.43 835.784 1978.28 836.923 1976.76 836.923C1975.24 836.923 1974.09 835.784 1974.09 834.264C1974.09 832.745 1975.24 831.605 1976.76 831.605C1978.28 831.605 1979.43 832.872 1979.43 834.264Z" fill="white"/>
<path d="M2002.17 834.264C2002.17 835.784 2001.02 836.923 1999.5 836.923C1997.98 836.923 1996.83 835.784 1996.83 834.264C1996.83 832.745 1997.98 831.605 1999.5 831.605C2000.9 831.605 2002.17 832.872 2002.17 834.264Z" fill="white"/>
<path d="M2024.91 834.264C2024.91 835.784 2023.76 836.923 2022.24 836.923C2020.72 836.923 2019.57 835.784 2019.57 834.264C2019.57 832.745 2020.72 831.605 2022.24 831.605C2023.76 831.605 2024.91 832.872 2024.91 834.264Z" fill="white"/>
<path d="M2047.52 834.264C2047.52 835.784 2046.38 836.923 2044.85 836.923C2043.33 836.923 2042.18 835.784 2042.18 834.264C2042.18 832.745 2043.33 831.605 2044.85 831.605C2046.38 831.605 2047.52 832.872 2047.52 834.264Z" fill="white"/>
<path d="M2070.26 834.264C2070.26 835.784 2069.12 836.923 2067.59 836.923C2066.07 836.923 2064.92 835.784 2064.92 834.264C2064.92 832.745 2066.07 831.605 2067.59 831.605C2069.12 831.605 2070.26 832.872 2070.26 834.264Z" fill="white"/>
<path d="M2093 834.264C2093 835.784 2091.86 836.923 2090.33 836.923C2088.81 836.923 2087.66 835.784 2087.66 834.264C2087.66 832.745 2088.81 831.605 2090.33 831.605C2091.73 831.605 2093 832.872 2093 834.264Z" fill="white"/>
<path d="M1911.34 853.131C1911.34 854.65 1910.19 855.79 1908.67 855.79C1907.14 855.79 1906 854.65 1906 853.131C1906 851.611 1907.14 850.472 1908.67 850.472C1910.19 850.472 1911.34 851.611 1911.34 853.131Z" fill="white"/>
<path d="M1934.08 853.131C1934.08 854.65 1932.93 855.79 1931.41 855.79C1929.88 855.79 1928.74 854.65 1928.74 853.131C1928.74 851.611 1929.88 850.472 1931.41 850.472C1932.81 850.472 1934.08 851.611 1934.08 853.131Z" fill="white"/>
<path d="M1956.69 853.131C1956.69 854.65 1955.54 855.79 1954.02 855.79C1952.5 855.79 1951.35 854.65 1951.35 853.131C1951.35 851.611 1952.5 850.472 1954.02 850.472C1955.54 850.472 1956.69 851.611 1956.69 853.131Z" fill="white"/>
<path d="M1979.43 853.131C1979.43 854.65 1978.28 855.79 1976.76 855.79C1975.24 855.79 1974.09 854.65 1974.09 853.131C1974.09 851.611 1975.24 850.472 1976.76 850.472C1978.28 850.472 1979.43 851.611 1979.43 853.131Z" fill="white"/>
<path d="M2002.17 853.131C2002.17 854.65 2001.02 855.79 1999.5 855.79C1997.98 855.79 1996.83 854.65 1996.83 853.131C1996.83 851.611 1997.98 850.472 1999.5 850.472C2000.9 850.472 2002.17 851.611 2002.17 853.131Z" fill="white"/>
<path d="M2024.91 853.131C2024.91 854.65 2023.76 855.79 2022.24 855.79C2020.72 855.79 2019.57 854.65 2019.57 853.131C2019.57 851.611 2020.72 850.472 2022.24 850.472C2023.76 850.472 2024.91 851.611 2024.91 853.131Z" fill="white"/>
<path d="M2047.52 853.131C2047.52 854.65 2046.38 855.79 2044.85 855.79C2043.33 855.79 2042.18 854.65 2042.18 853.131C2042.18 851.611 2043.33 850.472 2044.85 850.472C2046.38 850.472 2047.52 851.611 2047.52 853.131Z" fill="white"/>
<path d="M2070.26 853.131C2070.26 854.65 2069.12 855.79 2067.59 855.79C2066.07 855.79 2064.92 854.65 2064.92 853.131C2064.92 851.611 2066.07 850.472 2067.59 850.472C2069.12 850.472 2070.26 851.611 2070.26 853.131Z" fill="white"/>
<path d="M2093 853.131C2093 854.65 2091.86 855.79 2090.33 855.79C2088.81 855.79 2087.66 854.65 2087.66 853.131C2087.66 851.611 2088.81 850.472 2090.33 850.472C2091.73 850.472 2093 851.611 2093 853.131Z" fill="white"/>
<path d="M1911.34 796.659C1911.34 798.178 1910.19 799.318 1908.67 799.318C1907.14 799.318 1906 798.178 1906 796.659C1906 795.14 1907.14 794 1908.67 794C1910.19 794 1911.34 795.14 1911.34 796.659Z" fill="white"/>
<path d="M1934.08 796.659C1934.08 798.178 1932.93 799.318 1931.41 799.318C1929.88 799.318 1928.74 798.178 1928.74 796.659C1928.74 795.14 1929.88 794 1931.41 794C1932.81 794 1934.08 795.14 1934.08 796.659Z" fill="white"/>
<path d="M1956.69 796.659C1956.69 798.178 1955.54 799.318 1954.02 799.318C1952.5 799.318 1951.35 798.178 1951.35 796.659C1951.35 795.14 1952.62 794 1954.02 794C1955.54 794 1956.69 795.14 1956.69 796.659Z" fill="white"/>
<path d="M1979.43 796.659C1979.43 798.178 1978.28 799.318 1976.76 799.318C1975.24 799.318 1974.09 798.178 1974.09 796.659C1974.09 795.14 1975.36 794 1976.76 794C1978.16 794 1979.43 795.14 1979.43 796.659Z" fill="white"/>
<path d="M2002.17 796.659C2002.17 798.178 2001.02 799.318 1999.5 799.318C1997.98 799.318 1996.83 798.178 1996.83 796.659C1996.83 795.14 1997.98 794 1999.5 794C2000.9 794 2002.17 795.14 2002.17 796.659Z" fill="white"/>
<path d="M2024.91 796.659C2024.91 798.178 2023.76 799.318 2022.24 799.318C2020.72 799.318 2019.57 798.178 2019.57 796.659C2019.57 795.14 2020.72 794 2022.24 794C2023.76 794 2024.91 795.14 2024.91 796.659Z" fill="white"/>
<path d="M2047.52 796.659C2047.52 798.178 2046.38 799.318 2044.85 799.318C2043.33 799.318 2042.18 798.178 2042.18 796.659C2042.18 795.14 2043.33 794 2044.85 794C2046.38 794 2047.52 795.14 2047.52 796.659Z" fill="white"/>
<path d="M2070.26 796.659C2070.26 798.178 2069.12 799.318 2067.59 799.318C2066.07 799.318 2064.92 798.178 2064.92 796.659C2064.92 795.14 2066.07 794 2067.59 794C2069.12 794 2070.26 795.14 2070.26 796.659Z" fill="white"/>
<path d="M2093 796.659C2093 798.178 2091.86 799.318 2090.33 799.318C2088.81 799.318 2087.66 798.178 2087.66 796.659C2087.66 795.14 2088.81 794 2090.33 794C2091.73 794 2093 795.14 2093 796.659Z" fill="white"/>
<path d="M1911.34 815.525C1911.34 817.045 1910.19 818.184 1908.67 818.184C1907.14 818.184 1906 816.918 1906 815.525C1906 814.006 1907.14 812.866 1908.67 812.866C1910.19 812.866 1911.34 814.006 1911.34 815.525Z" fill="white"/>
<path d="M1934.08 815.525C1934.08 817.045 1932.93 818.184 1931.41 818.184C1929.88 818.184 1928.74 817.045 1928.74 815.525C1928.74 814.006 1929.88 812.866 1931.41 812.866C1932.81 812.866 1934.08 814.006 1934.08 815.525Z" fill="white"/>
<path d="M1956.69 815.525C1956.69 817.045 1955.54 818.184 1954.02 818.184C1952.5 818.184 1951.35 817.045 1951.35 815.525C1951.35 814.006 1952.5 812.866 1954.02 812.866C1955.54 812.866 1956.69 814.006 1956.69 815.525Z" fill="white"/>
<path d="M1979.43 815.525C1979.43 817.045 1978.28 818.184 1976.76 818.184C1975.24 818.184 1974.09 817.045 1974.09 815.525C1974.09 814.006 1975.24 812.866 1976.76 812.866C1978.28 812.866 1979.43 814.006 1979.43 815.525Z" fill="white"/>
<path d="M2002.17 815.525C2002.17 817.045 2001.02 818.184 1999.5 818.184C1997.98 818.184 1996.83 817.045 1996.83 815.525C1996.83 814.006 1997.98 812.866 1999.5 812.866C2000.9 812.866 2002.17 814.006 2002.17 815.525Z" fill="white"/>
<path d="M2024.91 815.525C2024.91 817.045 2023.76 818.184 2022.24 818.184C2020.72 818.184 2019.57 817.045 2019.57 815.525C2019.57 814.006 2020.72 812.866 2022.24 812.866C2023.76 812.866 2024.91 814.006 2024.91 815.525Z" fill="white"/>
<path d="M2047.52 815.525C2047.52 817.045 2046.38 818.184 2044.85 818.184C2043.33 818.184 2042.18 817.045 2042.18 815.525C2042.18 814.006 2043.33 812.866 2044.85 812.866C2046.38 812.866 2047.52 814.006 2047.52 815.525Z" fill="white"/>
<path d="M2070.26 815.525C2070.26 817.045 2069.12 818.184 2067.59 818.184C2066.07 818.184 2064.92 817.045 2064.92 815.525C2064.92 814.006 2066.07 812.866 2067.59 812.866C2069.12 812.866 2070.26 814.006 2070.26 815.525Z" fill="white"/>
<path d="M2093 815.525C2093 817.045 2091.86 818.184 2090.33 818.184C2088.81 818.184 2087.66 817.045 2087.66 815.525C2087.66 814.006 2088.81 812.866 2090.33 812.866C2091.73 812.866 2093 814.006 2093 815.525Z" fill="white"/>
<path d="M1911.34 871.87C1911.34 873.389 1910.19 874.529 1908.67 874.529C1907.14 874.529 1906 873.389 1906 871.87C1906 870.35 1907.14 869.211 1908.67 869.211C1910.19 869.211 1911.34 870.477 1911.34 871.87Z" fill="white"/>
<path d="M1934.08 871.87C1934.08 873.389 1932.93 874.529 1931.41 874.529C1929.88 874.529 1928.74 873.389 1928.74 871.87C1928.74 870.35 1929.88 869.211 1931.41 869.211C1932.81 869.211 1934.08 870.477 1934.08 871.87Z" fill="white"/>
<path d="M1956.69 871.87C1956.69 873.389 1955.54 874.529 1954.02 874.529C1952.5 874.529 1951.35 873.389 1951.35 871.87C1951.35 870.35 1952.5 869.211 1954.02 869.211C1955.54 869.211 1956.69 870.477 1956.69 871.87Z" fill="white"/>
<path d="M1979.43 871.87C1979.43 873.389 1978.28 874.529 1976.76 874.529C1975.24 874.529 1974.09 873.389 1974.09 871.87C1974.09 870.35 1975.24 869.211 1976.76 869.211C1978.28 869.211 1979.43 870.477 1979.43 871.87Z" fill="white"/>
<path d="M2002.17 871.87C2002.17 873.389 2001.02 874.529 1999.5 874.529C1997.98 874.529 1996.83 873.389 1996.83 871.87C1996.83 870.35 1997.98 869.211 1999.5 869.211C2000.9 869.211 2002.17 870.477 2002.17 871.87Z" fill="white"/>
<path d="M2024.91 871.87C2024.91 873.389 2023.76 874.529 2022.24 874.529C2020.72 874.529 2019.57 873.389 2019.57 871.87C2019.57 870.35 2020.72 869.211 2022.24 869.211C2023.76 869.211 2024.91 870.477 2024.91 871.87Z" fill="white"/>
<path d="M2047.52 871.87C2047.52 873.389 2046.38 874.529 2044.85 874.529C2043.33 874.529 2042.18 873.389 2042.18 871.87C2042.18 870.35 2043.33 869.211 2044.85 869.211C2046.38 869.211 2047.52 870.477 2047.52 871.87Z" fill="white"/>
<path d="M2070.26 871.87C2070.26 873.389 2069.12 874.529 2067.59 874.529C2066.07 874.529 2064.92 873.389 2064.92 871.87C2064.92 870.35 2066.07 869.211 2067.59 869.211C2069.12 869.211 2070.26 870.477 2070.26 871.87Z" fill="white"/>
<path d="M2093 871.87C2093 873.389 2091.86 874.529 2090.33 874.529C2088.81 874.529 2087.66 873.389 2087.66 871.87C2087.66 870.35 2088.81 869.211 2090.33 869.211C2091.73 869.211 2093 870.477 2093 871.87Z" fill="white"/>
<path d="M1911.34 890.736C1911.34 892.256 1910.19 893.395 1908.67 893.395C1907.14 893.395 1906 892.256 1906 890.736C1906 889.217 1907.14 888.077 1908.67 888.077C1910.19 888.077 1911.34 889.217 1911.34 890.736Z" fill="white"/>
<path d="M1934.08 890.736C1934.08 892.256 1932.93 893.395 1931.41 893.395C1929.88 893.395 1928.74 892.256 1928.74 890.736C1928.74 889.217 1929.88 888.077 1931.41 888.077C1932.81 888.077 1934.08 889.217 1934.08 890.736Z" fill="white"/>
<path d="M1956.69 890.736C1956.69 892.256 1955.54 893.395 1954.02 893.395C1952.5 893.395 1951.35 892.256 1951.35 890.736C1951.35 889.217 1952.5 888.077 1954.02 888.077C1955.54 888.077 1956.69 889.217 1956.69 890.736Z" fill="white"/>
<path d="M1976.76 893.395C1978.23 893.395 1979.43 892.205 1979.43 890.736C1979.43 889.268 1978.23 888.077 1976.76 888.077C1975.29 888.077 1974.09 889.268 1974.09 890.736C1974.09 892.205 1975.29 893.395 1976.76 893.395Z" fill="white"/>
<path d="M2002.17 890.736C2002.17 892.256 2001.02 893.395 1999.5 893.395C1997.98 893.395 1996.83 892.256 1996.83 890.736C1996.83 889.217 1997.98 888.077 1999.5 888.077C2000.9 888.077 2002.17 889.217 2002.17 890.736Z" fill="white"/>
<path d="M2024.91 890.736C2024.91 892.256 2023.76 893.395 2022.24 893.395C2020.72 893.395 2019.57 892.256 2019.57 890.736C2019.57 889.217 2020.72 888.077 2022.24 888.077C2023.76 888.077 2024.91 889.217 2024.91 890.736Z" fill="white"/>
<path d="M2047.52 890.736C2047.52 892.256 2046.38 893.395 2044.85 893.395C2043.33 893.395 2042.18 892.256 2042.18 890.736C2042.18 889.217 2043.33 888.077 2044.85 888.077C2046.38 888.077 2047.52 889.217 2047.52 890.736Z" fill="white"/>
<path d="M2067.59 893.395C2069.07 893.395 2070.26 892.205 2070.26 890.736C2070.26 889.268 2069.07 888.077 2067.59 888.077C2066.12 888.077 2064.92 889.268 2064.92 890.736C2064.92 892.205 2066.12 893.395 2067.59 893.395Z" fill="white"/>
<path d="M2093 890.736C2093 892.256 2091.86 893.395 2090.33 893.395C2088.81 893.395 2087.66 892.256 2087.66 890.736C2087.66 889.217 2088.81 888.077 2090.33 888.077C2091.73 888.077 2093 889.217 2093 890.736Z" fill="white"/>
<path d="M1911.34 909.601C1911.34 911.121 1910.19 912.26 1908.67 912.26C1907.14 912.26 1906 911.121 1906 909.601C1906 908.082 1907.14 906.942 1908.67 906.942C1910.19 906.942 1911.34 908.082 1911.34 909.601Z" fill="white"/>
<path d="M1934.08 909.601C1934.08 911.121 1932.93 912.26 1931.41 912.26C1929.88 912.26 1928.74 911.121 1928.74 909.601C1928.74 908.082 1929.88 906.942 1931.41 906.942C1932.81 906.942 1934.08 908.082 1934.08 909.601Z" fill="white"/>
<path d="M1956.69 909.601C1956.69 911.121 1955.54 912.26 1954.02 912.26C1952.5 912.26 1951.35 911.121 1951.35 909.601C1951.35 908.082 1952.5 906.942 1954.02 906.942C1955.54 906.942 1956.69 908.082 1956.69 909.601Z" fill="white"/>
<path d="M1979.43 909.601C1979.43 911.121 1978.28 912.26 1976.76 912.26C1975.24 912.26 1974.09 911.121 1974.09 909.601C1974.09 908.082 1975.24 906.942 1976.76 906.942C1978.28 906.942 1979.43 908.082 1979.43 909.601Z" fill="white"/>
<path d="M2002.17 909.601C2002.17 911.121 2001.02 912.26 1999.5 912.26C1997.98 912.26 1996.83 911.121 1996.83 909.601C1996.83 908.082 1997.98 906.942 1999.5 906.942C2000.9 906.942 2002.17 908.082 2002.17 909.601Z" fill="white"/>
<path d="M2024.91 909.601C2024.91 911.121 2023.76 912.26 2022.24 912.26C2020.72 912.26 2019.57 911.121 2019.57 909.601C2019.57 908.082 2020.72 906.942 2022.24 906.942C2023.76 906.942 2024.91 908.082 2024.91 909.601Z" fill="white"/>
<path d="M2047.52 909.601C2047.52 911.121 2046.38 912.26 2044.85 912.26C2043.33 912.26 2042.18 911.121 2042.18 909.601C2042.18 908.082 2043.33 906.942 2044.85 906.942C2046.38 906.942 2047.52 908.082 2047.52 909.601Z" fill="white"/>
<path d="M2070.26 909.601C2070.26 911.121 2069.12 912.26 2067.59 912.26C2066.07 912.26 2064.92 911.121 2064.92 909.601C2064.92 908.082 2066.07 906.942 2067.59 906.942C2069.12 906.942 2070.26 908.082 2070.26 909.601Z" fill="white"/>
<path d="M2093 909.601C2093 911.121 2091.86 912.26 2090.33 912.26C2088.81 912.26 2087.66 911.121 2087.66 909.601C2087.66 908.082 2088.81 906.942 2090.33 906.942C2091.73 906.942 2093 908.082 2093 909.601Z" fill="white"/>
<path d="M1911.34 928.341C1911.34 929.86 1910.19 931 1908.67 931C1907.14 931 1906 929.86 1906 928.341C1906 926.821 1907.14 925.682 1908.67 925.682C1910.19 925.682 1911.34 926.948 1911.34 928.341Z" fill="white"/>
<path d="M1934.08 928.341C1934.08 929.86 1932.93 931 1931.41 931C1929.88 931 1928.74 929.86 1928.74 928.341C1928.74 926.821 1929.88 925.682 1931.41 925.682C1932.81 925.682 1934.08 926.948 1934.08 928.341Z" fill="white"/>
<path d="M1956.69 928.341C1956.69 929.86 1955.54 931 1954.02 931C1952.5 931 1951.35 929.86 1951.35 928.341C1951.35 926.821 1952.5 925.682 1954.02 925.682C1955.54 925.682 1956.69 926.948 1956.69 928.341Z" fill="white"/>
<path d="M1979.43 928.341C1979.43 929.86 1978.28 931 1976.76 931C1975.24 931 1974.09 929.86 1974.09 928.341C1974.09 926.821 1975.24 925.682 1976.76 925.682C1978.28 925.682 1979.43 926.948 1979.43 928.341Z" fill="white"/>
<path d="M2002.17 928.341C2002.17 929.86 2001.02 931 1999.5 931C1997.98 931 1996.83 929.86 1996.83 928.341C1996.83 926.821 1997.98 925.682 1999.5 925.682C2000.9 925.682 2002.17 926.948 2002.17 928.341Z" fill="white"/>
<path d="M2024.91 928.341C2024.91 929.86 2023.76 931 2022.24 931C2020.72 931 2019.57 929.86 2019.57 928.341C2019.57 926.821 2020.72 925.682 2022.24 925.682C2023.76 925.682 2024.91 926.948 2024.91 928.341Z" fill="white"/>
<path d="M2047.52 928.341C2047.52 929.86 2046.38 931 2044.85 931C2043.33 931 2042.18 929.86 2042.18 928.341C2042.18 926.821 2043.33 925.682 2044.85 925.682C2046.38 925.682 2047.52 926.948 2047.52 928.341Z" fill="white"/>
<path d="M2070.26 928.341C2070.26 929.86 2069.12 931 2067.59 931C2066.07 931 2064.92 929.86 2064.92 928.341C2064.92 926.821 2066.07 925.682 2067.59 925.682C2069.12 925.682 2070.26 926.948 2070.26 928.341Z" fill="white"/>
<path d="M2093 928.341C2093 929.86 2091.86 931 2090.33 931C2088.81 931 2087.66 929.86 2087.66 928.341C2087.66 926.821 2088.81 925.682 2090.33 925.682C2091.73 925.682 2093 926.948 2093 928.341Z" fill="white"/>
</g>
<g opacity="0.3">
<path d="M1904.81 120.221L1914.47 129.88L1888.78 155.563L1863.1 129.88L1872.68 120.294L1888.71 136.319L1904.81 120.221Z" fill="white"/>
<path d="M1904.81 85.5386L1914.39 95.1241L1888.71 120.807L1863.1 95.1973L1872.76 85.5386L1888.78 101.563L1904.81 85.5386Z" fill="white"/>
<path d="M1904.73 50.7816L1914.39 60.4404L1888.78 86.0506L1863.1 60.3672L1872.68 50.7816L1888.71 66.8063L1904.73 50.7816Z" fill="white"/>
<path d="M1904.81 16.0239L1914.47 25.6826L1888.78 51.366L1863.1 25.6826L1872.76 16.0239L1888.78 32.0486L1904.81 16.0239Z" fill="white"/>
</g>
<path opacity="0.3" d="M937 853.553C923.071 867.482 900.377 867.482 886.447 853.553C872.518 839.623 872.518 816.929 886.447 803L937 853.553Z" fill="white"/>
<g opacity="0.3">
<path d="M991.486 574.89C1002.21 574.89 1010.94 566.165 1010.94 555.453C1010.94 544.742 1002.21 536.017 991.486 536.017L991.486 574.89Z" fill="white"/>
<path d="M961.141 574.89C971.861 574.89 980.592 566.165 980.592 555.453C980.592 544.742 971.861 536.017 961.141 536.017L961.141 574.89Z" fill="white"/>
<path d="M930.797 574.89C941.516 574.89 950.248 566.165 950.248 555.453C950.248 544.742 941.516 536.017 930.797 536.017V574.89Z" fill="white"/>
</g>
<g opacity="0.3">
<path d="M289.301 189.921L289.301 178L321 178L321 209.699L309.169 209.699L309.169 189.921L289.301 189.921Z" fill="white"/>
<path d="M267.899 211.325L267.899 199.494L299.598 199.494L299.598 231.103L287.677 231.103L287.677 211.325L267.899 211.325Z" fill="white"/>
<path d="M246.495 232.819L246.495 220.898L278.104 220.898L278.104 252.597L266.273 252.597L266.273 232.819L246.495 232.819Z" fill="white"/>
<path d="M225.001 254.222L225.001 242.301L256.7 242.301L256.7 274L244.779 274L244.779 254.222L225.001 254.222Z" fill="white"/>
</g>
<rect x="3" y="3" width="45.3125" height="26" rx="2" fill="#E5E5E5"/>
<rect x="3.5" y="3.5" width="44.3125" height="25" rx="1.5" stroke="black" stroke-opacity="0.14902"/>
<path d="M12.0938 14.3437L11.2656 14.5781C11.2135 14.4401 11.1367 14.306 11.0352 14.1758C10.9362 14.043 10.8008 13.9336 10.6289 13.8477C10.457 13.7617 10.237 13.7187 9.96875 13.7187C9.60156 13.7187 9.29557 13.8034 9.05078 13.9727C8.80859 14.1393 8.6875 14.3516 8.6875 14.6094C8.6875 14.8385 8.77083 15.0195 8.9375 15.1523C9.10417 15.2852 9.36458 15.3958 9.71875 15.4844L10.6094 15.7031C11.1458 15.8333 11.5456 16.0326 11.8086 16.3008C12.0716 16.5664 12.2031 16.9089 12.2031 17.3281C12.2031 17.6719 12.1042 17.9792 11.9063 18.25C11.7109 18.5208 11.4375 18.7344 11.0859 18.8906C10.7344 19.0469 10.3255 19.125 9.85938 19.125C9.2474 19.125 8.74089 18.9922 8.33984 18.7266C7.9388 18.4609 7.6849 18.0729 7.57813 17.5625L8.45313 17.3437C8.53646 17.6667 8.69401 17.9089 8.92578 18.0703C9.16016 18.2318 9.46615 18.3125 9.84375 18.3125C10.2734 18.3125 10.6146 18.2214 10.8672 18.0391C11.1224 17.8542 11.25 17.6328 11.25 17.375C11.25 17.1667 11.1771 16.9922 11.0313 16.8516C10.8854 16.7083 10.6615 16.6016 10.3594 16.5312L9.35938 16.2969C8.8099 16.1667 8.40625 15.9648 8.14844 15.6914C7.89323 15.4154 7.76563 15.0703 7.76563 14.6562C7.76563 14.3177 7.86068 14.0182 8.05078 13.7578C8.24349 13.4974 8.50521 13.293 8.83594 13.1445C9.16927 12.9961 9.54688 12.9219 9.96875 12.9219C10.5625 12.9219 11.0286 13.0521 11.3672 13.3125C11.7083 13.5729 11.9505 13.9167 12.0938 14.3437ZM14.5127 15.3906V19H13.5908V11H14.5127V13.9375H14.5908C14.7314 13.6276 14.9424 13.3815 15.2236 13.1992C15.5075 13.0143 15.8851 12.9219 16.3564 12.9219C16.7653 12.9219 17.1234 13.0039 17.4307 13.168C17.738 13.3294 17.9762 13.5781 18.1455 13.9141C18.3174 14.2474 18.4033 14.6719 18.4033 15.1875V19H17.4814V15.25C17.4814 14.7734 17.3577 14.4049 17.1104 14.1445C16.8656 13.8815 16.5257 13.75 16.0908 13.75C15.7887 13.75 15.5179 13.8138 15.2783 13.9414C15.0413 14.069 14.8538 14.2552 14.7158 14.5C14.5804 14.7448 14.5127 15.0417 14.5127 15.3906ZM21.8555 19.1406C21.4753 19.1406 21.1302 19.069 20.8203 18.9258C20.5104 18.7799 20.2643 18.5703 20.082 18.2969C19.8997 18.0208 19.8086 17.6875 19.8086 17.2969C19.8086 16.9531 19.8763 16.6745 20.0117 16.4609C20.1471 16.2448 20.3281 16.0755 20.5547 15.9531C20.7812 15.8307 21.0313 15.7396 21.3047 15.6797C21.5807 15.6172 21.8581 15.5677 22.1367 15.5313C22.5013 15.4844 22.7969 15.4492 23.0234 15.4258C23.2526 15.3997 23.4193 15.3568 23.5234 15.2969C23.6302 15.237 23.6836 15.1328 23.6836 14.9844V14.9531C23.6836 14.5677 23.5781 14.2682 23.3672 14.0547C23.1589 13.8411 22.8424 13.7344 22.418 13.7344C21.9779 13.7344 21.6328 13.8307 21.3828 14.0234C21.1328 14.2161 20.957 14.4219 20.8555 14.6406L19.9805 14.3281C20.1367 13.9635 20.3451 13.6797 20.6055 13.4766C20.8685 13.2708 21.1549 13.1276 21.4648 13.0469C21.7773 12.9635 22.0846 12.9219 22.3867 12.9219C22.5794 12.9219 22.8008 12.9453 23.0508 12.9922C23.3034 13.0365 23.5469 13.1289 23.7813 13.2695C24.0182 13.4102 24.2148 13.6224 24.3711 13.9062C24.5273 14.1901 24.6055 14.5703 24.6055 15.0469V19H23.6836V18.1875H23.6367C23.5742 18.3177 23.4701 18.457 23.3242 18.6055C23.1784 18.7539 22.9844 18.8802 22.7422 18.9844C22.5 19.0885 22.2044 19.1406 21.8555 19.1406ZM21.9961 18.3125C22.3607 18.3125 22.668 18.2409 22.918 18.0977C23.1706 17.9544 23.3607 17.7695 23.4883 17.543C23.6185 17.3164 23.6836 17.0781 23.6836 16.8281V15.9844C23.6445 16.0312 23.5586 16.0742 23.4258 16.1133C23.2956 16.1497 23.1445 16.1823 22.9727 16.2109C22.8034 16.237 22.638 16.2604 22.4766 16.2812C22.3177 16.2995 22.1888 16.3151 22.0898 16.3281C21.8503 16.3594 21.6263 16.4102 21.418 16.4805C21.2122 16.5482 21.0456 16.651 20.918 16.7891C20.793 16.9245 20.7305 17.1094 20.7305 17.3437C20.7305 17.6641 20.849 17.9062 21.0859 18.0703C21.3255 18.2318 21.6289 18.3125 21.9961 18.3125ZM26.2881 21.25V13H27.1787V13.9531H27.2881C27.3558 13.849 27.4495 13.7161 27.5693 13.5547C27.6917 13.3906 27.8662 13.2448 28.0928 13.1172C28.3219 12.987 28.6318 12.9219 29.0225 12.9219C29.5277 12.9219 29.973 13.0482 30.3584 13.3008C30.7438 13.5534 31.0446 13.9115 31.2607 14.375C31.4769 14.8385 31.585 15.3854 31.585 16.0156C31.585 16.651 31.4769 17.2018 31.2607 17.668C31.0446 18.1315 30.7451 18.4909 30.3623 18.7461C29.9795 18.9987 29.5381 19.125 29.0381 19.125C28.6527 19.125 28.3441 19.0612 28.1123 18.9336C27.8805 18.8034 27.7021 18.6562 27.5771 18.4922C27.4521 18.3255 27.3558 18.1875 27.2881 18.0781H27.21V21.25H26.2881ZM27.1943 16C27.1943 16.4531 27.2607 16.8529 27.3936 17.1992C27.5264 17.543 27.7204 17.8125 27.9756 18.0078C28.2308 18.2005 28.5433 18.2969 28.9131 18.2969C29.2985 18.2969 29.6201 18.1953 29.8779 17.9922C30.1383 17.7865 30.3337 17.5104 30.4639 17.1641C30.5967 16.8151 30.6631 16.4271 30.6631 16C30.6631 15.5781 30.598 15.1979 30.4678 14.8594C30.3402 14.5182 30.1462 14.2487 29.8857 14.0508C29.6279 13.8503 29.3037 13.75 28.9131 13.75C28.5381 13.75 28.223 13.8451 27.9678 14.0352C27.7126 14.2227 27.5199 14.4857 27.3896 14.8242C27.2594 15.1602 27.1943 15.5521 27.1943 16ZM35.5068 19.125C34.9287 19.125 34.43 18.9974 34.0107 18.7422C33.5941 18.4844 33.2725 18.125 33.0459 17.6641C32.8219 17.2005 32.71 16.6615 32.71 16.0469C32.71 15.4323 32.8219 14.8906 33.0459 14.4219C33.2725 13.9505 33.5876 13.5833 33.9912 13.3203C34.3975 13.0547 34.8714 12.9219 35.4131 12.9219C35.7256 12.9219 36.0342 12.974 36.3389 13.0781C36.6436 13.1823 36.9209 13.3516 37.1709 13.5859C37.4209 13.8177 37.6201 14.125 37.7686 14.5078C37.917 14.8906 37.9912 15.362 37.9912 15.9219V16.3125H33.3662V15.5156H37.0537C37.0537 15.1771 36.986 14.875 36.8506 14.6094C36.7178 14.3437 36.5277 14.1341 36.2803 13.9805C36.0355 13.8268 35.7464 13.75 35.4131 13.75C35.0459 13.75 34.7282 13.8411 34.46 14.0234C34.1943 14.2031 33.9899 14.4375 33.8467 14.7266C33.7035 15.0156 33.6318 15.3255 33.6318 15.6562V16.1875C33.6318 16.6406 33.71 17.0247 33.8662 17.3398C34.0251 17.6523 34.2451 17.8906 34.5264 18.0547C34.8076 18.2161 35.1344 18.2969 35.5068 18.2969C35.749 18.2969 35.9678 18.263 36.1631 18.1953C36.361 18.125 36.5316 18.0208 36.6748 17.8828C36.818 17.7422 36.9287 17.5677 37.0068 17.3594L37.8975 17.6094C37.8037 17.9115 37.6462 18.1771 37.4248 18.4062C37.2035 18.6328 36.93 18.8099 36.6045 18.9375C36.279 19.0625 35.9131 19.125 35.5068 19.125ZM43.6436 14.3437L42.8154 14.5781C42.7633 14.4401 42.6865 14.306 42.585 14.1758C42.486 14.043 42.3506 13.9336 42.1787 13.8477C42.0068 13.7617 41.7868 13.7187 41.5186 13.7187C41.1514 13.7187 40.8454 13.8034 40.6006 13.9727C40.3584 14.1393 40.2373 14.3516 40.2373 14.6094C40.2373 14.8385 40.3206 15.0195 40.4873 15.1523C40.654 15.2852 40.9144 15.3958 41.2686 15.4844L42.1592 15.7031C42.6956 15.8333 43.0954 16.0326 43.3584 16.3008C43.6214 16.5664 43.7529 16.9089 43.7529 17.3281C43.7529 17.6719 43.654 17.9792 43.4561 18.25C43.2607 18.5208 42.9873 18.7344 42.6357 18.8906C42.2842 19.0469 41.8753 19.125 41.4092 19.125C40.7972 19.125 40.2907 18.9922 39.8896 18.7266C39.4886 18.4609 39.2347 18.0729 39.1279 17.5625L40.0029 17.3437C40.0863 17.6667 40.2438 17.9089 40.4756 18.0703C40.71 18.2318 41.016 18.3125 41.3936 18.3125C41.8232 18.3125 42.1644 18.2214 42.417 18.0391C42.6722 17.8542 42.7998 17.6328 42.7998 17.375C42.7998 17.1667 42.7269 16.9922 42.5811 16.8516C42.4352 16.7083 42.2113 16.6016 41.9092 16.5312L40.9092 16.2969C40.3597 16.1667 39.9561 15.9648 39.6982 15.6914C39.443 15.4154 39.3154 15.0703 39.3154 14.6562C39.3154 14.3177 39.4105 14.0182 39.6006 13.7578C39.7933 13.4974 40.055 13.293 40.3857 13.1445C40.7191 12.9961 41.0967 12.9219 41.5186 12.9219C42.1123 12.9219 42.5785 13.0521 42.917 13.3125C43.2581 13.5729 43.5003 13.9167 43.6436 14.3437Z" fill="black"/>
<defs>
<clipPath id="clip0_0_1">
<rect width="284" height="284" fill="white" transform="translate(31 941)"/>
</clipPath>
<clipPath id="clip1_0_1">
<rect width="187" height="137" fill="white" transform="translate(1906 794)"/>
</clipPath>
</defs>
</svg>
