<svg width="190" height="242" viewBox="0 0 190 242" fill="none" xmlns="http://www.w3.org/2000/svg">
<g opacity="0.12" clip-path="url(#clip0_2355_2270)">
<path d="M95.0652 0C42.512 0 0 54.1469 0 121.083C0 187.853 42.512 242.166 95.0652 242.166C147.488 242.166 190.13 188.019 190.13 121.083C190 54.1469 147.488 0 95.0652 0ZM95.0652 234.36C45.9025 234.36 6.12903 183.701 6.12903 121.083C6.12903 58.4653 45.9025 7.80645 95.0652 7.80645C144.228 7.80645 184.001 58.4653 184.001 121.083C184.001 183.535 144.097 234.36 95.0652 234.36Z" fill="#FFCF2D"/>
<path d="M95.0652 26.0762C53.9877 26.0762 20.604 68.5964 20.604 120.916C20.604 173.236 53.9877 215.756 95.0652 215.756C136.143 215.756 169.526 173.402 169.526 121.082C169.526 68.5964 136.143 26.0762 95.0652 26.0762ZM95.0652 201.306C60.2471 201.306 31.9492 165.264 31.9492 120.916C31.9492 76.569 60.2471 40.5264 95.0652 40.5264C129.883 40.5264 158.181 76.569 158.181 120.916C158.181 165.264 129.883 201.306 95.0652 201.306Z" fill="#FFCF2D"/>
</g>
<defs>
<clipPath id="clip0_2355_2270">
<rect width="190" height="242" fill="white"/>
</clipPath>
</defs>
</svg>
